<svg width="89" height="45" viewBox="0 0 89 45" fill="none" xmlns="http://www.w3.org/2000/svg">
<g filter="url(#filter0_i_13_34)">
<path d="M0.568 45V43.752H3.512V1.448H0.568V0.199997H10.456C12.4827 0.199997 14.328 1.01066 15.992 2.632C17.6773 4.232 19.0213 6.664 20.024 9.928C21.048 13.192 21.56 17.2987 21.56 22.248C21.56 27.24 21.048 31.432 20.024 34.824C19.0213 38.1947 17.6773 40.7333 15.992 42.44C14.3067 44.1467 12.4613 45 10.456 45H0.568ZM8.344 43.752H9.784C10.9787 43.752 12.088 42.9947 13.112 41.48C14.1573 39.944 14.9893 37.5973 15.608 34.44C16.248 31.2613 16.568 27.1973 16.568 22.248C16.568 17.8533 16.28 14.1093 15.704 11.016C15.1493 7.92267 14.4133 5.55467 13.496 3.912C12.5787 2.26933 11.608 1.448 10.584 1.448H8.344V43.752ZM23.439 45V43.752H26.223L32.719 0.103996H34.767L41.487 43.752H44.431V45H33.455V43.752H36.271L31.919 12.072H32.111L27.567 43.752H30.095V45H23.439ZM28.335 34.568V33.352H35.791V34.568H28.335ZM50.551 45V43.752H53.591V26.184L47.639 1.448H44.791V0.199997H55.511V1.448H53.079L58.231 24.648H57.303L62.871 1.448H60.215V0.199997H66.999V1.448H64.215L58.391 25.544V43.752H61.207V45H50.551ZM67.314 45V43.752H70.098L76.594 0.103996H78.642L85.362 43.752H88.306V45H77.33V43.752H80.146L75.794 12.072H75.986L71.442 43.752H73.97V45H67.314ZM72.21 34.568V33.352H79.666V34.568H72.21Z" fill="black"/>
</g>
<defs>
<filter id="filter0_i_13_34" x="0.567993" y="0.104004" width="87.7379" height="48.896" filterUnits="userSpaceOnUse" color-interpolation-filters="sRGB">
<feFlood flood-opacity="0" result="BackgroundImageFix"/>
<feBlend mode="normal" in="SourceGraphic" in2="BackgroundImageFix" result="shape"/>
<feColorMatrix in="SourceAlpha" type="matrix" values="0 0 0 0 0 0 0 0 0 0 0 0 0 0 0 0 0 0 127 0" result="hardAlpha"/>
<feOffset dy="4"/>
<feGaussianBlur stdDeviation="2"/>
<feComposite in2="hardAlpha" operator="arithmetic" k2="-1" k3="1"/>
<feColorMatrix type="matrix" values="0 0 0 0 0 0 0 0 0 0 0 0 0 0 0 0 0 0 0.25 0"/>
<feBlend mode="normal" in2="shape" result="effect1_innerShadow_13_34"/>
</filter>
</defs>
</svg>
